<svg width="30" height="30" viewBox="0 0 30 30" fill="none" xmlns="http://www.w3.org/2000/svg">
<g clip-path="url(#clip0_144_783)">
<!-- Garis tepi hitam di sekeliling emoji -->
<circle cx="15" cy="15" r="14.5" stroke="black" stroke-width="1"/>
<path d="M28.9746 15.0001C28.9746 23.0416 23.0416 29.502 15 29.502C14.5056 29.502 14.0169 29.5359 13.5351 29.4878C6.18146 28.7532 0.439453 22.5472 0.439453 15.0001C0.439453 7.4611 6.16904 1.26036 13.5112 0.514691C14.0007 0.465004 14.4974 0.498109 15 0.498109C23.0416 0.498109 28.9746 6.95848 28.9746 15.0001Z" fill="#FFF0AF"/>
<path d="M15 0.439453C14.5055 0.439453 14.0169 0.464355 13.5352 0.51252C20.8888 1.24717 26.6309 7.45289 26.6309 15C26.6309 22.5471 20.8888 28.7528 13.5352 29.4875C14.0169 29.5356 14.5055 29.5605 15 29.5605C23.0416 29.5605 29.5605 23.0416 29.5605 15C29.5605 6.95842 23.0416 0.439453 15 0.439453Z" fill="#FFE07D"/>
<path d="M9.20898 14.1168C8.64268 14.1168 8.18359 13.6577 8.18359 13.0914V11.2266C8.18359 10.6603 8.64268 10.2012 9.20898 10.2012C9.77529 10.2012 10.2344 10.6603 10.2344 11.2266V13.0914C10.2344 13.6577 9.77529 14.1168 9.20898 14.1168Z" fill="#685E68"/>
<path d="M20.791 14.1168C20.2247 14.1168 19.7656 13.6577 19.7656 13.0914V11.2266C19.7656 10.6603 20.2247 10.2012 20.791 10.2012C21.3573 10.2012 21.8164 10.6603 21.8164 11.2266V13.0914C21.8164 13.6577 21.3573 14.1168 20.791 14.1168Z" fill="#685E68"/>
<!-- Garis mulut -->
<path d="M10 18H20" stroke="black" stroke-width="1.5"/>
</g>
<defs>
<clipPath id="clip0_144_783">
<rect width="30" height="30" fill="white"/>
</clipPath>
</defs>
</svg>
