<svg width="30" height="30" viewBox="0 0 30 30" fill="none" xmlns="http://www.w3.org/2000/svg">
<g clip-path="url(#clip0_144_896)">
<path d="M28.9746 14.9999C28.9746 23.0415 23.0416 29.5019 15 29.5019C14.5056 29.5019 14.0169 29.5358 13.5351 29.4877C6.18146 28.7531 0.439453 22.547 0.439453 14.9999C0.439453 7.46098 6.16904 1.26023 13.5112 0.514569C14.0007 0.464882 14.4974 0.497987 15 0.497987C23.0416 0.497987 28.9746 6.95836 28.9746 14.9999Z" fill="#FD8087"/>
<path d="M15 0.439453C14.5055 0.439453 14.0169 0.464355 13.5352 0.51252C20.8888 1.24717 26.6309 7.45289 26.6309 15C26.6309 22.5471 20.8888 28.7528 13.5352 29.4875C14.0169 29.5356 14.5055 29.5605 15 29.5605C23.0416 29.5605 29.5605 23.0416 29.5605 15C29.5605 6.95842 23.0416 0.439453 15 0.439453Z" fill="#EE6161"/>
<path d="M9.20898 14.1167C8.64268 14.1167 8.18359 13.6576 8.18359 13.0913V11.2264C8.18359 10.6601 8.64268 10.201 9.20898 10.201C9.77529 10.201 10.2344 10.6601 10.2344 11.2264V13.0913C10.2344 13.6576 9.77529 14.1167 9.20898 14.1167Z" fill="#685E68"/>
<path d="M20.791 14.1167C20.2247 14.1167 19.7656 13.6576 19.7656 13.0913V11.2264C19.7656 10.6601 20.2247 10.201 20.791 10.201C21.3573 10.201 21.8164 10.6601 21.8164 11.2264V13.0913C21.8164 13.6576 21.3573 14.1167 20.791 14.1167Z" fill="#685E68"/>
<path d="M20.5978 22.1462C20.4854 22.1462 20.3729 22.1033 20.2871 22.0175C17.3718 19.1022 12.6283 19.1022 9.71305 22.0175C9.54143 22.1891 9.26317 22.1891 9.09161 22.0175C8.91999 21.8458 8.91999 21.5676 9.09161 21.396C12.3496 18.138 17.6506 18.138 20.9086 21.396C21.0802 21.5676 21.0802 21.8459 20.9086 22.0175C20.8228 22.1032 20.7103 22.1462 20.5978 22.1462Z" fill="black"/>
<path d="M3.86133 24.8173C3.73623 24.8173 3.61201 24.7642 3.52506 24.6611C1.25191 21.9638 0 18.5328 0 15C0 10.9934 1.56023 7.22648 4.39336 4.39336C7.22648 1.56023 10.9934 0 15 0C18.545 0 21.9852 1.25965 24.6869 3.54691C24.8721 3.70371 24.8951 3.98103 24.7383 4.16625C24.5815 4.35146 24.3043 4.37449 24.119 4.2177C21.5759 2.06461 18.3373 0.878906 15 0.878906C11.2281 0.878906 7.68199 2.34773 5.01486 5.01486C2.34773 7.68199 0.878906 11.2281 0.878906 15C0.878906 18.3258 2.05734 21.5556 4.19713 24.0947C4.35352 24.2803 4.3299 24.5575 4.14428 24.7139C4.06184 24.7834 3.96129 24.8173 3.86133 24.8173Z" fill="black"/>
<path d="M15.0003 30C11.2606 30 7.67836 28.6157 4.91338 26.1022C4.73379 25.9389 4.72055 25.661 4.88385 25.4814C5.04703 25.3018 5.325 25.2885 5.50459 25.4518C8.10738 27.818 11.4797 29.1211 15.0003 29.1211C18.7722 29.1211 22.3183 27.6523 24.9854 24.9851C27.6526 22.318 29.1214 18.7719 29.1214 15C29.1214 11.4826 27.8203 8.11254 25.4579 5.51063C25.2947 5.33098 25.3081 5.05301 25.4878 4.88988C25.6675 4.7267 25.9454 4.74012 26.1086 4.91983C28.6182 7.68381 30.0003 11.2637 30.0003 15C30.0003 19.0066 28.44 22.7735 25.6069 25.6066C22.7738 28.4398 19.0069 30 15.0003 30Z" fill="black"/>
<path d="M10.5265 9.18359C10.4682 9.18359 10.409 9.17193 10.3521 9.14727L7.56376 7.93977C7.34105 7.84332 7.23868 7.58457 7.33513 7.36186C7.43157 7.13914 7.69021 7.03678 7.91304 7.13322L10.7013 8.34072C10.9241 8.43717 11.0264 8.69592 10.93 8.91863C10.8582 9.08451 10.6964 9.18359 10.5265 9.18359Z" fill="black"/>
<path d="M19.473 9.18354C19.3031 9.18354 19.1413 9.08445 19.0695 8.91863C18.9731 8.69592 19.0754 8.43717 19.2981 8.34072L22.0864 7.13322C22.3092 7.03678 22.5678 7.13914 22.6643 7.36186C22.7608 7.58457 22.6584 7.84332 22.4357 7.93977L19.6474 9.14727C19.5905 9.17188 19.5312 9.18354 19.473 9.18354Z" fill="black"/>
<path d="M9.20898 14.5561C8.40127 14.5561 7.74414 13.899 7.74414 13.0913V11.2264C7.74414 10.4187 8.40127 9.7616 9.20898 9.7616C10.0167 9.7616 10.6738 10.4187 10.6738 11.2264V13.0913C10.6738 13.899 10.0167 14.5561 9.20898 14.5561ZM9.20898 10.6405C8.8859 10.6405 8.62305 10.9034 8.62305 11.2264V13.0913C8.62305 13.4144 8.8859 13.6772 9.20898 13.6772C9.53207 13.6772 9.79492 13.4144 9.79492 13.0913V11.2264C9.79492 10.9034 9.53207 10.6405 9.20898 10.6405Z" fill="black"/>
<path d="M20.793 14.5561C19.9853 14.5561 19.3281 13.899 19.3281 13.0913V11.2264C19.3281 10.4187 19.9853 9.7616 20.793 9.7616C21.6007 9.7616 22.2578 10.4187 22.2578 11.2264V13.0913C22.2578 13.899 21.6007 14.5561 20.793 14.5561ZM20.793 10.6405C20.4699 10.6405 20.207 10.9034 20.207 11.2264V13.0913C20.207 13.4144 20.4699 13.6772 20.793 13.6772C21.1161 13.6772 21.3789 13.4144 21.3789 13.0913V11.2264C21.3789 10.9034 21.1161 10.6405 20.793 10.6405Z" fill="black"/>
</g>
<defs>
<clipPath id="clip0_144_896">
<rect width="30" height="30" fill="white"/>
</clipPath>
</defs>
</svg>
