<svg width="30" height="30" viewBox="0 0 30 30" fill="none" xmlns="http://www.w3.org/2000/svg">
<g clip-path="url(#clip0_144_1214)">
<path d="M28.9746 14.9999C28.9746 23.0415 23.0416 29.5019 15 29.5019C14.5056 29.5019 14.0169 29.5358 13.5351 29.4877C6.18146 28.7531 0.439453 22.547 0.439453 14.9999C0.439453 7.46098 6.16904 1.26023 13.5112 0.514569C14.0007 0.464882 14.4974 0.497987 15 0.497987C23.0416 0.497987 28.9746 6.95836 28.9746 14.9999Z" fill="#FFF0AF"/>
<path d="M15 0.439453C14.5055 0.439453 14.0169 0.464355 13.5352 0.51252C20.8888 1.24717 26.6309 7.45289 26.6309 15C26.6309 22.5471 20.8888 28.7528 13.5352 29.4875C14.0169 29.5356 14.5055 29.5605 15 29.5605C17.1044 29.5605 19.1045 29.1141 20.9108 28.3108C21.1839 28.1893 21.4523 27.9447 21.7162 27.8072C21.9977 27.6606 22.274 27.6202 22.5444 27.4561C26.7504 24.9031 29.5605 20.2797 29.5605 15C29.5605 6.95842 23.0416 0.439453 15 0.439453Z" fill="#FFE07D"/>
<path d="M22.4073 12.4263C21.9058 12.9134 21.1519 13.0737 20.6039 13.1221C20.7228 14.0726 21.0254 14.3459 21.0254 15.7346C21.0254 17.4628 20.5566 17.4628 20.5566 19.1909C20.5566 20.9191 21.0254 20.9191 21.0254 22.6473C21.0254 24.3756 20.5566 24.3756 20.5566 26.1039C20.5566 26.3777 20.5684 26.6081 20.5882 26.8089C20.653 27.4661 20.9851 27.4249 21.0914 27.9288C21.6557 27.6779 21.7921 27.7738 22.3159 27.456C22.2385 27.1212 22.3475 26.724 22.3475 26.1039C22.3475 25.734 22.4275 25.4433 22.4613 25.1979C22.5853 24.2965 22.8748 24.0057 22.8748 22.6474C22.8748 20.9191 22.4061 20.9191 22.4061 19.191C22.4061 17.4628 22.8748 17.4628 22.8748 15.7347C22.8748 14.0574 22.4333 14.0078 22.4073 12.4263Z" fill="#8AC9FE"/>
<path d="M22.5435 27.4561C22.4661 27.1213 22.4056 26.7241 22.4056 26.104C22.4056 25.734 22.4272 25.4435 22.461 25.198C21.8839 25.786 21.2574 26.3253 20.5879 26.8091C20.6527 27.4659 20.8033 27.8062 20.9096 28.3101C21.4739 28.0591 22.0197 27.774 22.5435 27.4561Z" fill="#60B7FF"/>
<path d="M16.915 19.901C16.915 21.5682 16.381 22.8611 14.9995 22.8611C14.7976 22.8611 14.6013 22.8909 14.4133 22.8364C13.3146 22.518 12.498 21.3246 12.498 19.901C12.498 19.5379 12.5511 19.1898 12.6485 18.8674C12.9983 17.7093 13.9188 16.9409 14.9995 16.9409C16.381 16.9409 16.915 18.2338 16.915 19.901Z" fill="#FD8087"/>
<path d="M15 16.9995C14.7981 16.9995 14.6021 17.0292 14.4141 17.0837C15.2578 17.3281 15.9352 17.9709 16.2042 18.9551C16.2855 19.2526 16.3296 19.5706 16.3296 19.901C16.3296 21.3246 15.5128 22.5172 14.4141 22.8356C14.6021 22.8901 14.7981 22.9198 15 22.9198C16.3815 22.9198 17.5014 21.5682 17.5014 19.9011C17.5014 19.538 17.4483 19.1899 17.351 18.8674C17.0012 17.7093 16.0806 16.9995 15 16.9995Z" fill="#EE6161"/>
<path d="M12.6484 18.8674C13.4216 18.9454 14.2056 18.9868 14.9993 18.9868C15.403 18.9868 15.8044 18.976 16.203 18.9553C16.5879 18.9352 16.4993 18.8751 16.8791 18.8368C16.5293 17.6787 16.0799 16.941 14.9993 16.941C14.7974 16.941 14.6011 16.9112 14.4131 16.9657C13.5947 17.2029 12.9328 17.9257 12.6484 18.8674Z" fill="#F3F0F3"/>
<path d="M15 16.8823C14.8001 16.8823 14.6057 16.9108 14.4193 16.9642C14.4175 16.9649 14.4158 16.9659 14.4141 16.9664C15.2577 17.2109 15.9346 17.9711 16.2037 18.9551C16.5886 18.935 16.971 18.9057 17.3508 18.8674C17.0012 17.7093 16.0806 16.8823 15 16.8823Z" fill="#E2DEE2"/>
<path d="M8.97439 15.7348C8.97439 14.3723 9.26567 14.0836 9.38895 13.1756C8.42162 13.3371 7.85338 12.8122 7.59164 12.4648C7.55912 14.0084 7.125 14.0714 7.125 15.7348C7.125 17.4629 7.59375 17.4629 7.59375 19.1911C7.59375 20.9193 7.125 20.9193 7.125 22.6474C7.125 24.3757 7.59375 24.3757 7.59375 26.104C7.59375 26.7242 7.53328 27.1214 7.45594 27.4562C7.97971 27.774 8.52545 28.0592 9.08977 28.3102C9.22858 27.6522 9.4432 27.2737 9.4432 26.104C9.4432 24.3757 8.97445 24.3757 8.97445 22.6474C8.97445 20.9192 9.4432 20.9192 9.4432 19.1911C9.44315 17.4629 8.97439 17.4629 8.97439 15.7348Z" fill="#8AC9FE"/>
<path d="M0.878906 15C0.878906 11.2281 2.34773 7.68199 5.01486 5.01486C7.68199 2.34773 11.2281 0.878906 15 0.878906C18.3373 0.878906 21.5759 2.06461 24.119 4.2177C24.3042 4.37449 24.5815 4.35146 24.7383 4.16625C24.8951 3.98098 24.8721 3.70371 24.6868 3.54691C21.9853 1.25965 18.545 0 15 0C10.9934 0 7.22648 1.56023 4.39336 4.39336C1.56029 7.22648 0 10.9934 0 15C0 18.5328 1.25191 21.9639 3.52506 24.6611C3.61201 24.7642 3.73623 24.8173 3.86133 24.8173C3.96129 24.8173 4.06189 24.7834 4.14428 24.7139C4.3299 24.5575 4.35352 24.2803 4.19713 24.0947C2.05734 21.5557 0.878906 18.3258 0.878906 15Z" fill="black"/>
<path d="M26.1086 4.9198C25.9454 4.74009 25.6675 4.72674 25.4878 4.88986C25.3081 5.05304 25.2947 5.33095 25.4578 5.5106C27.8203 8.11252 29.1214 11.4826 29.1214 15C29.1214 18.7719 27.6526 22.318 24.9855 24.9851C24.3309 25.6397 23.623 26.2217 22.8722 26.7279C22.8563 26.5534 22.8462 26.3492 22.8462 26.104C22.8462 25.2984 22.9526 24.9061 23.0652 24.4907C23.188 24.0381 23.315 23.5701 23.315 22.6474C23.315 21.7247 23.188 21.2567 23.0652 20.8042C22.9526 20.3888 22.8462 19.9966 22.8462 19.191C22.8462 18.3855 22.9526 17.9932 23.0652 17.5779C23.188 17.1253 23.315 16.6573 23.315 15.7347C23.315 14.8121 23.188 14.3441 23.0652 13.8916C22.9526 13.4763 22.8462 13.084 22.8462 12.2785C22.8462 11.8398 22.2451 11.6786 22.0259 12.0589C21.7683 12.5051 21.3069 12.7715 20.7916 12.7715C20.2762 12.7715 19.8148 12.5051 19.5572 12.0589C19.4359 11.8486 19.1669 11.7767 18.9569 11.898C18.7467 12.0194 18.6747 12.2881 18.796 12.4983C19.117 13.0543 19.634 13.4365 20.2353 13.5831C20.2758 13.7816 20.3222 13.9538 20.3677 14.1217C20.4804 14.5369 20.5867 14.9292 20.5867 15.7347C20.5867 16.5402 20.4804 16.9325 20.3677 17.3478C20.2449 17.8003 20.118 18.2683 20.118 19.191C20.118 20.1136 20.2449 20.5816 20.3677 21.0343C20.4803 21.4496 20.5867 21.8419 20.5867 22.6474C20.5867 23.453 20.4803 23.8453 20.3677 24.2607C20.2449 24.7133 20.118 25.1813 20.118 26.104C20.118 27.0269 20.2449 27.4952 20.3677 27.948C20.3776 27.9848 20.3875 28.0211 20.3972 28.0573C18.7085 28.7552 16.8826 29.1211 15.0003 29.1211C13.1289 29.1211 11.2994 28.7528 9.60501 28.0524C9.61427 28.0178 9.62364 27.9831 9.6332 27.9479C9.75595 27.4951 9.88292 27.0268 9.88292 26.104C9.88292 25.1813 9.75601 24.7132 9.6332 24.2606C9.52058 23.8453 9.41417 23.4529 9.41417 22.6473C9.41417 21.8418 9.52058 21.4495 9.6332 21.0342C9.75601 20.5816 9.88292 20.1136 9.88292 19.191C9.88292 18.2683 9.75601 17.8003 9.6332 17.3477C9.52052 16.9324 9.41417 16.5401 9.41417 15.7346C9.41417 14.9291 9.52058 14.5369 9.6332 14.1216C9.67872 13.9538 9.72513 13.7815 9.76562 13.583C10.3668 13.4363 10.8838 13.0541 11.2047 12.4983C11.326 12.2881 11.254 12.0193 11.0438 11.898C10.8335 11.7766 10.5648 11.8486 10.4435 12.0588C10.1859 12.5051 9.72443 12.7715 9.20915 12.7715C8.69382 12.7715 8.23239 12.5051 7.97476 12.0588C7.75538 11.6788 7.15474 11.8397 7.15474 12.2785C7.15474 13.084 7.04839 13.4762 6.93571 13.8915C6.8129 14.3441 6.68599 14.812 6.68599 15.7346C6.68599 16.6572 6.8129 17.1252 6.93571 17.5778C7.04833 17.9931 7.15474 18.3854 7.15474 19.191C7.15474 19.9965 7.04839 20.3888 6.93571 20.8041C6.8129 21.2567 6.68599 21.7247 6.68599 22.6473C6.68599 23.57 6.8129 24.0381 6.93571 24.4906C7.04833 24.906 7.15474 25.2983 7.15474 26.1039C7.15474 26.3475 7.14484 26.5507 7.12907 26.7244C6.56101 26.3425 6.01767 25.9181 5.50462 25.4517C5.32515 25.2884 5.04712 25.3016 4.88382 25.4812C4.72058 25.6608 4.73376 25.9387 4.91341 26.102C7.67833 28.6157 11.2606 30 15.0003 30C19.007 30 22.7738 28.4397 25.607 25.6066C28.44 22.7735 30.0003 19.0066 30.0003 15C30.0003 11.2636 28.6182 7.68379 26.1086 4.9198ZM7.78386 24.2607C7.67124 23.8453 7.56484 23.453 7.56484 22.6474C7.56484 21.8419 7.67124 21.4496 7.78386 21.0343C7.90667 20.5817 8.03359 20.1137 8.03359 19.191C8.03359 18.2684 7.90667 17.8004 7.78386 17.3478C7.67118 16.9325 7.56484 16.5402 7.56484 15.7347C7.56484 14.9292 7.67118 14.5369 7.78386 14.1217C7.85118 13.8736 7.91956 13.6203 7.96778 13.2906C8.23409 13.461 8.53503 13.5747 8.85566 13.623C8.83316 13.7136 8.80937 13.8016 8.78499 13.8915C8.66218 14.3441 8.53527 14.812 8.53527 15.7346C8.53527 16.6572 8.66218 17.1252 8.78499 17.5778C8.89761 17.9931 9.00402 18.3854 9.00402 19.191C9.00402 19.9965 8.89767 20.3888 8.78499 20.8041C8.66218 21.2567 8.53527 21.7247 8.53527 22.6473C8.53527 23.57 8.66218 24.0381 8.78499 24.4906C8.89761 24.906 9.00402 25.2983 9.00402 26.1039C9.00402 26.8889 8.903 27.2818 8.79361 27.6858C8.50726 27.5455 8.22542 27.3954 7.94863 27.2357C7.99527 26.9604 8.03353 26.599 8.03353 26.1039C8.03359 25.1813 7.90667 24.7132 7.78386 24.2607ZM20.9969 26.104C20.9969 25.2984 21.1033 24.9061 21.2159 24.4907C21.3387 24.0381 21.4656 23.5701 21.4656 22.6474C21.4656 21.7247 21.3387 21.2567 21.2159 20.8042C21.1032 20.3888 20.9969 19.9966 20.9969 19.191C20.9969 18.3855 21.1033 17.9932 21.2159 17.5779C21.3387 17.1253 21.4656 16.6573 21.4656 15.7347C21.4656 14.8121 21.3387 14.3441 21.2159 13.8916C21.1915 13.8017 21.1677 13.7136 21.1452 13.623C21.4659 13.5746 21.7668 13.4609 22.0331 13.2904C22.0813 13.6202 22.1498 13.8735 22.2171 14.1217C22.3298 14.5369 22.4361 14.9292 22.4361 15.7347C22.4361 16.5402 22.3298 16.9325 22.2171 17.3478C22.0943 17.8003 21.9674 18.2683 21.9674 19.191C21.9674 20.1136 22.0943 20.5816 22.2171 21.0343C22.3297 21.4496 22.4361 21.8419 22.4361 22.6474C22.4361 23.453 22.3297 23.8453 22.2171 24.2607C22.0943 24.7133 21.9674 25.1813 21.9674 26.104C21.9674 26.6014 22.006 26.9639 22.053 27.2397C21.7763 27.3998 21.4947 27.5499 21.2084 27.6902C21.0986 27.2847 20.9969 26.8919 20.9969 26.104Z" fill="black"/>
<path d="M7.42136 8.74353C6.88317 9.28165 6.57573 9.95613 6.59888 10.5477C6.60808 10.7844 6.80284 10.97 7.03768 10.97C7.04349 10.97 7.04929 10.9699 7.05515 10.9697C7.29767 10.9602 7.48657 10.7559 7.47708 10.5134C7.46354 10.1675 7.68034 9.72738 8.0428 9.36492C8.40532 9.00245 8.84595 8.78619 9.1913 8.79919C9.43657 8.80857 9.63813 8.61978 9.64757 8.3772C9.65706 8.13468 9.46815 7.93042 9.22563 7.92093C8.63425 7.89744 7.95942 8.2054 7.42136 8.74353Z" fill="black"/>
<path d="M20.7738 7.92104C20.5313 7.93053 20.3424 8.13479 20.3519 8.37731C20.3613 8.61983 20.5639 8.80891 20.8082 8.7993C21.1512 8.78617 21.5942 9.0025 21.9567 9.36502C22.3191 9.72748 22.5359 10.1675 22.5224 10.5135C22.5129 10.756 22.7018 10.9603 22.9443 10.9698C22.9502 10.97 22.956 10.9701 22.9618 10.9701C23.1966 10.9701 23.3914 10.7845 23.4006 10.5479C23.4237 9.95623 23.1163 9.28176 22.5781 8.74363C22.04 8.20539 21.3656 7.89772 20.7738 7.92104Z" fill="black"/>
<path d="M12.0586 19.901C12.0586 21.8078 13.3779 23.3592 14.9995 23.3592C16.6211 23.3592 17.9404 21.8078 17.9404 19.901C17.9404 17.9942 16.6211 16.4429 14.9995 16.4429C13.3779 16.4429 12.0586 17.9941 12.0586 19.901ZM14.9995 22.4803C13.8625 22.4803 12.9375 21.3232 12.9375 19.901C12.9375 19.7083 12.955 19.5207 12.9872 19.34C13.6598 19.3971 14.3355 19.4262 14.9995 19.4262C15.6633 19.4262 16.3391 19.3971 17.0118 19.34C17.0439 19.5207 17.0615 19.7083 17.0615 19.901C17.0614 21.3231 16.1364 22.4803 14.9995 22.4803ZM16.7196 18.4809C16.1437 18.5244 15.567 18.5473 14.9995 18.5473C14.4319 18.5473 13.8551 18.5244 13.2793 18.481C13.6488 17.7831 14.2818 17.3218 14.9995 17.3218C15.7172 17.3218 16.3502 17.7831 16.7196 18.4809Z" fill="black"/>
</g>
<defs>
<clipPath id="clip0_144_1214">
<rect width="30" height="30" fill="white"/>
</clipPath>
</defs>
</svg>
