<svg width="30" height="30" viewBox="0 0 30 30" fill="none" xmlns="http://www.w3.org/2000/svg">
<path d="M28.9746 15.0001C28.9746 23.0416 23.0416 29.502 15 29.502C14.5056 29.502 14.0169 29.5359 13.5351 29.4878C6.18146 28.7532 0.439453 22.5472 0.439453 15.0001C0.439453 7.4611 6.16904 1.26036 13.5112 0.514691C14.0007 0.465004 14.4974 0.498109 15 0.498109C23.0416 0.498109 28.9746 6.95848 28.9746 15.0001Z" fill="#FFF0AF"/>
<path d="M19.9391 17.703L9.82984 18.0519C9.48631 18.0519 9.20781 18.3304 9.20781 18.6739V18.7009C9.20781 19.087 8.88666 19.1161 8.9548 19.4825C9.43287 22.0548 11.5125 24.0644 14.1201 24.4377C14.4071 24.4787 14.7006 24.4414 14.999 24.4414C18.3945 24.4414 20.5611 21.7474 20.5611 18.352V18.325C20.5611 17.9815 20.2826 17.703 19.9391 17.703Z" fill="#FD8087"/>
<path d="M19.94 17.7616H18.7682C19.1117 17.7616 19.3902 17.9815 19.3902 18.325V18.352C19.3902 21.449 17.1001 24.0107 14.1211 24.4371C14.4082 24.4782 14.7015 24.4999 15 24.4999C18.0093 24.4999 20.5136 22.3379 21.0442 19.4824C21.1123 19.116 20.562 18.7381 20.562 18.3519V18.325C20.5621 17.9815 20.2836 17.7616 19.94 17.7616Z" fill="#EE6161"/>
<path d="M19.9396 17.703H9.47359C9.13006 17.703 8.85156 17.9815 8.85156 18.325V18.352C8.85156 18.7382 8.88754 19.1159 8.95568 19.4824C10.8825 20.0024 12.9084 20.2811 14.9996 20.2811C16.4316 20.2811 17.833 20.1504 19.1929 19.901C19.8189 19.7862 19.8501 19.6463 20.4575 19.4824C20.5257 19.1159 20.5616 18.7382 20.5616 18.352V18.325C20.5616 17.9815 20.2831 17.703 19.9396 17.703Z" fill="#F3F0F3"/>
<path d="M19.3896 18.325V18.352C19.3896 18.8871 19.3212 19.4061 19.1927 19.9009C19.8188 19.7861 20.436 19.6463 21.0433 19.4824C21.1114 19.1159 21.1474 18.7382 21.1474 18.352V18.325C21.1474 17.9815 20.8689 17.703 20.5254 17.703H18.7676C19.1111 17.703 19.3896 17.9815 19.3896 18.325Z" fill="#E2DEE2"/>
<path d="M15 0.439453C14.5055 0.439453 14.0169 0.464355 13.5352 0.51252C20.8888 1.24717 26.6309 7.45289 26.6309 15C26.6309 22.5471 20.8888 28.7528 13.5352 29.4875C14.0169 29.5356 14.5055 29.5605 15 29.5605C23.0416 29.5605 29.5605 23.0416 29.5605 15C29.5605 6.95842 23.0416 0.439453 15 0.439453Z" fill="#FFE07D"/>
<path d="M20.4387 9.6644L19.9239 9.1496C19.0987 8.32437 17.7607 8.32437 16.9354 9.1496C16.1101 9.97489 16.1101 11.3129 16.9354 12.1382L19.8654 15.0682L20.4387 15.5945C20.6328 15.7886 20.9475 15.7886 21.1416 15.5945L24.504 12.1382C25.3293 11.3129 25.3293 9.97489 24.504 9.1496C24.0745 8.72011 23.6472 8.51415 23.0846 8.53167C22.566 8.54784 22.0522 8.7538 21.6565 9.1496L21.1417 9.6644C20.9475 9.85853 20.6328 9.85853 20.4387 9.6644Z" fill="#FD8087"/>
<path d="M24.6448 9.14963C24.2153 8.72013 23.647 8.51476 23.0843 8.53228C23.1441 8.58033 23.2021 8.63178 23.2576 8.68726C24.0829 9.51256 24.0829 10.8505 23.2576 11.6758L19.8652 15.0682L20.4385 15.6415C20.6326 15.8356 20.9473 15.8356 21.1415 15.6415L24.6448 12.1382C25.47 11.3129 25.47 9.97486 24.6448 9.14963Z" fill="#EE6161"/>
<path d="M8.85662 9.6644L8.34188 9.1496C7.51658 8.32437 6.17859 8.32437 5.3533 9.1496C4.52807 9.97489 4.52807 11.3129 5.3533 12.1382L8.28334 15.0682L8.85662 15.5945C9.05074 15.7886 9.36545 15.7886 9.55957 15.5945L12.9219 12.1382C13.7472 11.3129 13.7472 9.97489 12.9219 9.1496C12.4924 8.72011 12.0651 8.51415 11.5024 8.53167C10.9839 8.54784 10.4701 8.7538 10.0744 9.1496L9.55957 9.6644C9.36539 9.85853 9.05068 9.85853 8.85662 9.6644Z" fill="#FD8087"/>
<path d="M13.0647 9.14963C12.6352 8.72013 12.0669 8.51476 11.5042 8.53228C11.5641 8.58033 11.6221 8.63178 11.6776 8.68726C12.5029 9.51256 12.5029 10.8505 11.6776 11.6758L8.28516 15.0682L8.85844 15.6415C9.05256 15.8356 9.36727 15.8356 9.56139 15.6415L13.0647 12.1382C13.8899 11.3129 13.8899 9.97486 13.0647 9.14963Z" fill="#EE6161"/>
<path d="M0.878906 15C0.878906 11.2281 2.34773 7.68199 5.01486 5.01486C7.68199 2.34773 11.2281 0.878906 15 0.878906C18.3373 0.878906 21.5759 2.06461 24.1189 4.21764C24.3042 4.37455 24.5815 4.35146 24.7383 4.16619C24.8951 3.98098 24.872 3.70365 24.6868 3.54691C21.9853 1.25965 18.545 0 15 0C10.9934 0 7.22648 1.56029 4.39336 4.39336C1.56023 7.22648 0 10.9934 0 15C0 18.5327 1.25191 21.9637 3.52506 24.6611C3.61195 24.7642 3.73623 24.8173 3.86133 24.8173C3.96129 24.8173 4.06184 24.7834 4.14428 24.7139C4.3299 24.5575 4.35352 24.2803 4.19713 24.0947C2.05734 21.5556 0.878906 18.3258 0.878906 15Z" fill="black"/>
<path d="M26.1086 4.91978C25.9454 4.74013 25.6675 4.72672 25.4878 4.88984C25.3081 5.05297 25.2948 5.33088 25.4579 5.51064C27.8203 8.11256 29.1214 11.4826 29.1214 15C29.1214 18.7719 27.6526 22.318 24.9854 24.9851C22.3183 27.6522 18.7722 29.121 15.0003 29.121C11.4797 29.121 8.10738 27.8179 5.50459 25.4517C5.325 25.2884 5.04703 25.3017 4.88385 25.4813C4.72055 25.6609 4.73379 25.9389 4.91338 26.1021C7.67836 28.6157 11.2606 30 15.0003 30C19.0069 30 22.7738 28.4397 25.6069 25.6066C28.44 22.7735 30.0003 19.0066 30.0003 15C30.0003 11.2637 28.6182 7.68382 26.1086 4.91978Z" fill="black"/>
<path d="M14.9996 24.9394C18.6319 24.9394 21.587 21.9843 21.587 18.352V18.325C21.587 17.7397 21.1108 17.2635 20.5255 17.2635H9.47359C8.8883 17.2635 8.41211 17.7397 8.41211 18.325V18.352C8.41211 21.9843 11.3672 24.9394 14.9996 24.9394ZM14.9996 24.0605C12.457 24.0605 10.2976 22.3895 9.56125 20.0881C11.3375 20.5075 13.1638 20.7206 14.9996 20.7206C16.8354 20.7206 18.6615 20.5077 20.4378 20.0883C19.7014 22.3896 17.5421 24.0605 14.9996 24.0605ZM9.29102 18.325C9.29102 18.2243 9.37293 18.1425 9.47359 18.1425H20.5255C20.6262 18.1425 20.7081 18.2243 20.7081 18.325V18.352C20.7081 18.6157 20.6897 18.8752 20.655 19.1295C18.8136 19.6017 16.9122 19.8417 14.9996 19.8417C13.0871 19.8417 11.1855 19.6017 9.34428 19.1295C9.30947 18.8752 9.29113 18.6157 9.29113 18.352V18.325H9.29102Z" fill="black"/>
<path d="M24.9565 8.83891C23.9612 7.84376 22.3417 7.8437 21.3464 8.83897L20.8317 9.35372C20.8092 9.37616 20.7726 9.37616 20.7501 9.35372L20.2354 8.83891C19.2401 7.84376 17.6206 7.84376 16.6254 8.83891C15.6301 9.83418 15.6301 11.4537 16.6254 12.449L20.1287 15.9523C20.3056 16.1292 20.5408 16.2266 20.7909 16.2266C21.041 16.2266 21.2762 16.1292 21.4531 15.9523L24.9565 12.4489C25.9517 11.4537 25.9517 9.83418 24.9565 8.83891ZM24.335 11.8275L20.8316 15.3309C20.8092 15.3533 20.7726 15.3534 20.7501 15.3308L17.2468 11.8275C16.5942 11.1749 16.5942 10.113 17.2468 9.46042C17.5731 9.13411 18.0017 8.97092 18.4303 8.97092C18.8589 8.97092 19.2876 9.13411 19.6139 9.46036L20.1286 9.97516C20.1286 9.97516 20.1286 9.97522 20.1287 9.97522C20.4938 10.3403 21.0879 10.3403 21.4531 9.97516L21.9679 9.46042C22.6204 8.8078 23.6823 8.80786 24.335 9.46036C24.9876 10.113 24.9876 11.1749 24.335 11.8275Z" fill="black"/>
<path d="M9.20894 16.2266C9.45913 16.2266 9.69427 16.1292 9.8711 15.9523L13.3744 12.4489C14.3697 11.4537 14.3697 9.83418 13.3744 8.83891C12.3792 7.84376 10.7597 7.8437 9.76441 8.83897L9.2496 9.35372C9.22716 9.37622 9.1906 9.3761 9.1681 9.35372L8.65335 8.83891C7.65808 7.84376 6.03866 7.84376 5.04333 8.83891C4.04806 9.83418 4.04806 11.4537 5.04333 12.449L8.54659 15.9523C8.7236 16.1292 8.9588 16.2266 9.20894 16.2266ZM5.66489 9.46042C5.9912 9.13411 6.41976 8.97092 6.84843 8.97092C7.27698 8.97092 7.70565 9.13411 8.03196 9.46036L8.54677 9.97516C8.54677 9.97522 8.54677 9.97522 8.54683 9.97522C8.91198 10.3403 9.50606 10.3403 9.87122 9.97516L10.386 9.46042C11.0386 8.80786 12.1004 8.8078 12.7531 9.46036C13.4057 10.113 13.4057 11.1749 12.7531 11.8274L9.24966 15.3308C9.22728 15.3532 9.19065 15.3532 9.16827 15.3307L5.66495 11.8274C5.01228 11.1749 5.01228 10.113 5.66489 9.46042Z" fill="black"/>
</svg>
