<svg width="70" height="70" viewBox="0 0 70 70" fill="none" xmlns="http://www.w3.org/2000/svg">
<path d="M29.1667 23.3334V40.8334L42.8751 49.2917L45.2084 45.7917L33.5417 38.7917V23.3334H29.1667Z" fill="black"/>
<path d="M52.2666 35C52.7062 37.8989 52.5124 40.8588 51.6983 43.6757C50.8843 46.4925 49.4695 49.0995 47.5513 51.3172C45.633 53.5348 43.257 55.3103 40.5867 56.5215C37.9164 57.7327 35.0153 58.3508 32.0833 58.3333C20.7083 58.3333 11.6666 49.2916 11.6666 37.9166C11.6666 26.5416 20.7083 17.5 32.0833 17.5C34.1249 17.5 36.0791 17.7916 37.9166 18.3458V12.3375C36.0499 11.9 34.0958 11.6666 32.0833 11.6666C17.4999 11.6666 5.83325 23.3333 5.83325 37.9166C5.83325 52.5 17.4999 64.1666 32.0833 64.1666C35.7807 64.182 39.4393 63.4128 42.8175 61.9099C46.1957 60.4071 49.2167 58.2047 51.681 55.4482C54.1454 52.6917 55.9969 49.4438 57.1134 45.919C58.23 42.3941 58.5861 38.6726 58.1583 35H52.2666Z" fill="black"/>
<path d="M58.3333 14.5834V5.83337H52.5V14.5834H43.75V20.4167H52.5V29.1667H58.3333V20.4167H67.0833V14.5834H58.3333Z" fill="black"/>
</svg>
