<svg width="70" height="70" viewBox="0 0 70 70" fill="none" xmlns="http://www.w3.org/2000/svg">
<path d="M51.0416 35C55.2961 35 59.3763 36.6901 62.3847 39.6985C65.3931 42.7069 67.0832 46.7872 67.0832 51.0417C67.0832 55.2962 65.3931 59.3764 62.3847 62.3848C59.3763 65.3932 55.2961 67.0833 51.0416 67.0833C46.787 67.0833 42.7068 65.3932 39.6984 62.3848C36.69 59.3764 34.9999 55.2962 34.9999 51.0417C34.9999 46.7872 36.69 42.7069 39.6984 39.6985C42.7068 36.6901 46.787 35 51.0416 35ZM34.9999 5.82458C51.1116 5.82458 64.1724 18.8854 64.1724 34.9971C64.1724 35.7651 64.1432 36.5254 64.0849 37.2779C62.8011 36.0593 61.353 35.0265 59.7828 34.2096C59.6291 29.375 58.0645 24.691 55.282 20.7344C52.4994 16.7779 48.6204 13.7216 44.1226 11.9421C39.6248 10.1626 34.7047 9.73751 29.9684 10.7193C25.232 11.701 20.8862 14.0467 17.4663 17.4674C14.0464 20.888 11.7018 25.2343 10.7211 29.9709C9.74043 34.7075 10.1666 39.6275 11.9472 44.1249C13.7277 48.6222 16.7849 52.5006 20.742 55.2823C24.6992 58.0639 29.3836 59.6273 34.2182 59.78C35.0349 61.355 36.0703 62.8017 37.2807 64.0792C36.5321 64.1375 35.7718 64.1667 34.9999 64.1667C18.8882 64.1696 5.82739 51.1088 5.82739 35C5.82739 18.8883 18.8882 5.8275 34.9999 5.8275M51.0416 40.8275L50.7791 40.8508C50.4877 40.9041 50.2194 41.0448 50.0099 41.2542C49.8005 41.4637 49.6598 41.7319 49.6066 42.0233L49.5832 42.2858V49.5775L42.2857 49.5833L42.0232 49.6067C41.7318 49.6599 41.4636 49.8006 41.2541 50.0101C41.0447 50.2195 40.904 50.4878 40.8507 50.7792L40.8274 51.0417L40.8507 51.3042C40.904 51.5956 41.0447 51.8638 41.2541 52.0733C41.4636 52.2827 41.7318 52.4234 42.0232 52.4767L42.2857 52.5H49.5832V59.8033L49.6066 60.0658C49.6603 60.3567 49.8013 60.6243 50.0107 60.8332C50.2201 61.0421 50.4881 61.1824 50.7791 61.2354L51.0416 61.2617L51.3041 61.2354C51.5954 61.1822 51.8637 61.0415 52.0732 60.832C52.2826 60.6226 52.4233 60.3543 52.4766 60.0629L52.4999 59.8004V52.4971L59.8003 52.5L60.0628 52.4767C60.3542 52.4234 60.6225 52.2827 60.8319 52.0733C61.0414 51.8638 61.1821 51.5956 61.2353 51.3042L61.2616 51.0417L61.2382 50.7792C61.1848 50.4874 61.0437 50.2188 60.8337 50.0093C60.6236 49.7998 60.3547 49.6594 60.0628 49.6067L59.8003 49.5833H52.4999V42.2917L52.4766 42.0292C52.4239 41.7372 52.2834 41.4683 52.0739 41.2583C51.8644 41.0483 51.5958 40.9072 51.3041 40.8538L51.0416 40.8275ZM24.6807 43.1171C26.5972 45.5543 29.3147 47.2344 32.3516 47.8596C32.1037 49.3137 32.0264 50.7917 32.1211 52.2638C27.817 51.5531 23.9354 49.2554 21.242 45.8238C20.883 45.3677 20.72 44.7878 20.7886 44.2116C20.8573 43.6353 21.152 43.11 21.608 42.751C22.064 42.3921 22.6439 42.229 23.2202 42.2977C23.7964 42.3663 24.3218 42.6611 24.6807 43.1171ZM26.2499 25.5208C26.7372 25.5071 27.2222 25.5911 27.6764 25.7681C28.1306 25.945 28.5448 26.2112 28.8943 26.551C29.2438 26.8908 29.5216 27.2972 29.7114 27.7462C29.9011 28.1952 29.9988 28.6778 29.9988 29.1652C29.9988 29.6527 29.9011 30.1352 29.7114 30.5842C29.5216 31.0332 29.2438 31.4396 28.8943 31.7794C28.5448 32.1192 28.1306 32.3854 27.6764 32.5624C27.2222 32.7393 26.7372 32.8234 26.2499 32.8096C25.3012 32.7827 24.4004 32.387 23.7388 31.7065C23.0773 31.026 22.7072 30.1143 22.7072 29.1652C22.7072 28.2161 23.0773 27.3045 23.7388 26.6239C24.4004 25.9434 25.3012 25.5477 26.2499 25.5208ZM43.7499 25.5208C44.2372 25.5071 44.7222 25.5911 45.1764 25.7681C45.6306 25.945 46.0448 26.2112 46.3943 26.551C46.7438 26.8908 47.0216 27.2972 47.2114 27.7462C47.4011 28.1952 47.4988 28.6778 47.4988 29.1652C47.4988 29.6527 47.4011 30.1352 47.2114 30.5842C47.0216 31.0332 46.7438 31.4396 46.3943 31.7794C46.0448 32.1192 45.6306 32.3854 45.1764 32.5624C44.7222 32.7393 44.2372 32.8234 43.7499 32.8096C42.8012 32.7827 41.9004 32.387 41.2388 31.7065C40.5773 31.026 40.2072 30.1143 40.2072 29.1652C40.2072 28.2161 40.5773 27.3045 41.2388 26.6239C41.9004 25.9434 42.8012 25.5477 43.7499 25.5208Z" fill="black"/>
</svg>
