<svg width="199" height="218" viewBox="0 0 199 218" fill="none" xmlns="http://www.w3.org/2000/svg">
                    <path d="M192.197 99.4999C192.197 152.842 152.842 195.696 99.499 195.696C96.2194 195.696 92.9779 195.921 89.7818 195.602C41.0027 190.729 2.91406 149.562 2.91406 99.4999C2.91406 49.4914 40.9203 8.35984 89.6236 3.4136C92.8706 3.084 96.165 3.3036 99.499 3.3036C152.842 3.3036 192.197 46.1574 192.197 99.4999Z" fill="#FFF0AF"/>
                    <path d="M99.498 2.91504C96.218 2.91504 92.9769 3.08022 89.7812 3.39971C138.561 8.27288 176.649 49.4375 176.649 99.5C176.649 149.562 138.561 190.727 89.7812 195.6C92.9769 195.92 96.218 196.085 99.498 196.085C152.841 196.085 196.083 152.842 196.083 99.5C196.083 46.1575 152.841 2.91504 99.498 2.91504Z" fill="#FFE07D"/>
                    <path d="M61.083 93.6408C57.3265 93.6408 54.2812 90.5955 54.2812 86.839V74.4688C54.2812 70.7122 57.3265 67.667 61.083 67.667C64.8395 67.667 67.8848 70.7122 67.8848 74.4688V86.839C67.8848 90.5955 64.8395 93.6408 61.083 93.6408Z" fill="#685E68"/>
                    <path d="M137.915 93.6408C134.159 93.6408 131.113 90.5955 131.113 86.839V74.4688C131.113 70.7122 134.159 67.667 137.915 67.667C141.672 67.667 144.717 70.7122 144.717 74.4688V86.839C144.717 90.5955 141.672 93.6408 137.915 93.6408Z" fill="#685E68"/>
                    <mask id="path-5-inside-1_0_1" fill="white">
                    <path d="M63.8024 140H135.198C136.746 140 138 138.881 138 137.5C138 136.119 136.746 135 135.198 135H63.8024C62.2544 135 61 136.119 61 137.5C61 138.881 62.2544 140 63.8024 140Z"/>
                    </mask>
                    <path d="M63.8024 140H135.198C136.746 140 138 138.881 138 137.5C138 136.119 136.746 135 135.198 135H63.8024C62.2544 135 61 136.119 61 137.5C61 138.881 62.2544 140 63.8024 140Z" fill="black"/>
                    <path d="M63.8024 170H135.198V110H63.8024V170ZM135.198 170C150.004 170 168 158.576 168 137.5H108C108 119.185 123.488 110 135.198 110V170ZM168 137.5C168 116.424 150.004 105 135.198 105V165C123.488 165 108 155.815 108 137.5H168ZM135.198 105H63.8024V165H135.198V105ZM63.8024 105C48.9963 105 31 116.424 31 137.5H91C91 155.815 75.5125 165 63.8024 165V105ZM31 137.5C31 158.576 48.9963 170 63.8024 170V110C75.5125 110 91 119.185 91 137.5H31Z" fill="black" mask="url(#path-5-inside-1_0_1)"/>
                    <path d="M61.084 96.5558C55.7261 96.5558 51.3672 92.1968 51.3672 86.839V74.4688C51.3672 69.1109 55.7261 64.752 61.084 64.752C66.4418 64.752 70.8008 69.1109 70.8008 74.4688V86.839C70.8008 92.1968 66.4418 96.5558 61.084 96.5558ZM61.084 70.582C58.9408 70.582 57.1973 72.3256 57.1973 74.4688V86.839C57.1973 88.9821 58.9408 90.7257 61.084 90.7257C63.2271 90.7257 64.9707 88.9821 64.9707 86.839V74.4688C64.9707 72.3256 63.2271 70.582 61.084 70.582Z" fill="black"/>
                    <path d="M137.916 96.5558C132.558 96.5558 128.199 92.1968 128.199 86.839V74.4688C128.199 69.1109 132.558 64.752 137.916 64.752C143.274 64.752 147.633 69.1109 147.633 74.4688V86.839C147.633 92.1968 143.274 96.5558 137.916 96.5558ZM137.916 70.582C135.773 70.582 134.029 72.3256 134.029 74.4688V86.839C134.029 88.9821 135.773 90.7257 137.916 90.7257C140.059 90.7257 141.803 88.9821 141.803 86.839V74.4688C141.803 72.3256 140.059 70.582 137.916 70.582Z" fill="black"/>
                    <path d="M25.6135 164.622C24.7837 164.622 23.9597 164.269 23.3829 163.585C8.30436 145.693 0 122.934 0 99.5C0 72.9226 10.3496 47.9357 29.1426 29.1426C47.9357 10.3496 72.9226 0 99.5 0C123.015 0 145.835 8.35567 163.756 23.5279C164.985 24.5679 165.138 26.4075 164.098 27.6361C163.058 28.8647 161.218 29.0179 159.989 27.9774C143.12 13.6952 121.638 5.83008 99.5 5.83008C74.4796 5.83008 50.9572 15.5733 33.2653 33.2653C15.5733 50.9572 5.83008 74.4796 5.83008 99.5C5.83008 121.561 13.647 142.986 27.841 159.828C28.8783 161.059 28.7217 162.898 27.4904 163.936C26.9435 164.397 26.2766 164.622 25.6135 164.622Z" fill="black"/>
                    <path d="M99.5008 199C74.6942 199 50.932 189.818 32.5909 173.144C31.3996 172.061 31.3118 170.218 32.395 169.026C33.4775 167.835 35.3213 167.747 36.5126 168.831C53.7778 184.526 76.1474 193.17 99.5008 193.17C124.521 193.17 148.044 183.427 165.736 165.735C183.427 148.043 193.171 124.52 193.171 99.5C193.171 76.168 184.54 53.8132 168.869 36.5538C167.787 35.3622 167.876 33.5183 169.068 32.4362C170.26 31.3538 172.104 31.4428 173.186 32.6349C189.833 50.9693 199.001 74.7156 199.001 99.5C199.001 126.077 188.651 151.064 169.858 169.857C151.065 188.65 126.078 199 99.5008 199Z" fill="black"/>
                    <path d="M49.5 217.5H149" stroke="black"/>
                    </svg>
