     <svg width="199" height="218" viewBox="0 0 199 218" fill="none" xmlns="http://www.w3.org/2000/svg">
                    <path d="M192.197 99.4999C192.197 152.842 152.842 195.696 99.499 195.696C96.2194 195.696 92.9779 195.921 89.7818 195.602C41.0027 190.729 2.91406 149.562 2.91406 99.4999C2.91406 49.4914 40.9203 8.35984 89.6236 3.4136C92.8706 3.084 96.165 3.3036 99.499 3.3036C152.842 3.3036 192.197 46.1574 192.197 99.4999Z" fill="#FFF0AF"/>
                    <path d="M132.267 117.43L65.2092 119.744C62.9304 119.744 61.083 121.592 61.083 123.87V124.049C61.083 126.611 58.9527 126.803 59.4048 129.234C62.5759 146.297 76.3711 159.627 93.6677 162.103C95.5718 162.376 97.5187 162.128 99.4982 162.128C122.021 162.128 136.393 144.258 136.393 121.735V121.556C136.393 119.278 134.546 117.43 132.267 117.43Z" fill="#FD8087"/>
                    <path d="M132.267 117.819H124.494C126.772 117.819 128.62 119.278 128.62 121.556V121.735C128.62 142.278 113.429 159.271 93.668 162.1C95.5725 162.372 97.5182 162.517 99.498 162.517C119.459 162.517 136.071 148.175 139.591 129.234C140.043 126.803 136.393 124.296 136.393 121.735V121.556C136.393 119.278 134.546 117.819 132.267 117.819Z" fill="#EE6161"/>
                    <path d="M132.268 117.43H62.8429C60.5642 117.43 58.7168 119.278 58.7168 121.556V121.735C58.7168 124.297 58.9554 126.803 59.4075 129.233C72.1889 132.683 85.6269 134.532 99.4986 134.532C108.998 134.532 118.294 133.665 127.314 132.01C131.467 131.249 131.674 130.32 135.703 129.233C136.155 126.803 136.394 124.297 136.394 121.735V121.556C136.394 119.278 134.546 117.43 132.268 117.43Z" fill="#F3F0F3"/>
                    <path d="M128.62 121.556V121.735C128.62 125.284 128.166 128.727 127.314 132.01C131.467 131.248 135.561 130.321 139.59 129.233C140.042 126.803 140.28 124.297 140.28 121.735V121.556C140.28 119.278 138.433 117.43 136.154 117.43H124.494C126.773 117.43 128.62 119.278 128.62 121.556Z" fill="#E2DEE2"/>
                    <path d="M99.498 2.91504C96.218 2.91504 92.9769 3.08022 89.7812 3.39971C138.561 8.27288 176.649 49.4375 176.649 99.5C176.649 149.562 138.561 190.727 89.7812 195.6C92.9769 195.92 96.218 196.085 99.498 196.085C152.841 196.085 196.083 152.842 196.083 99.5C196.083 46.1575 152.841 2.91504 99.498 2.91504Z" fill="#FFE07D"/>
                    <path d="M135.583 64.1072L132.168 60.6923C126.694 55.2183 117.819 55.2183 112.344 60.6923C106.87 66.1668 106.87 75.0421 112.344 80.5165L131.78 99.9524L135.583 103.444C136.87 104.731 138.958 104.731 140.246 103.444L162.549 80.5165C168.024 75.0421 168.024 66.1668 162.549 60.6923C159.7 57.8434 156.866 56.4772 153.134 56.5934C149.694 56.7007 146.286 58.0668 143.661 60.6923L140.246 64.1072C138.958 65.3949 136.87 65.3949 135.583 64.1072Z" fill="#FD8087"/>
                    <path d="M163.484 60.6927C160.635 57.8438 156.865 56.4815 153.133 56.5977C153.529 56.9164 153.914 57.2576 154.282 57.6257C159.757 63.1002 159.757 71.9755 154.282 77.4499L131.779 99.9529L135.582 103.756C136.87 105.043 138.957 105.043 140.245 103.756L163.484 80.5169C168.958 75.0425 168.958 66.1668 163.484 60.6927Z" fill="#EE6161"/>
                    <path d="M58.7524 64.1072L55.338 60.6923C49.8635 55.2183 40.9882 55.2183 35.5137 60.6923C30.0397 66.1668 30.0397 75.0421 35.5137 80.5165L54.9497 99.9524L58.7524 103.444C60.0401 104.731 62.1277 104.731 63.4153 103.444L85.7189 80.5165C91.1933 75.0421 91.1933 66.1668 85.7189 60.6923C82.8699 57.8434 80.0353 56.4772 76.3029 56.5934C72.8632 56.7007 69.4553 58.0668 66.8302 60.6923L63.4153 64.1072C62.1273 65.3949 60.0397 65.3949 58.7524 64.1072Z" fill="#FD8087"/>
                    <path d="M86.6536 60.6927C83.8046 57.8438 80.0349 56.4815 76.3025 56.5977C76.6993 56.9164 77.0841 57.2576 77.4522 57.6257C82.9266 63.1002 82.9266 71.9755 77.4522 77.4499L54.9492 99.9529L58.752 103.756C60.0397 105.043 62.1272 105.043 63.4149 103.756L86.6536 80.5169C92.1276 75.0425 92.1276 66.1668 86.6536 60.6927Z" fill="#EE6161"/>
                    <path d="M5.83008 99.5C5.83008 74.4796 15.5733 50.9572 33.2653 33.2653C50.9572 15.5733 74.4796 5.83008 99.5 5.83008C121.638 5.83008 143.12 13.6952 159.989 27.977C161.218 29.0179 163.058 28.8647 164.097 27.6357C165.137 26.4071 164.985 24.5676 163.756 23.5279C145.836 8.35567 123.015 0 99.5 0C72.9226 0 47.9357 10.3499 29.1426 29.1426C10.3496 47.9357 0 72.9226 0 99.5C0 122.934 8.30436 145.693 23.3829 163.585C23.9593 164.269 24.7837 164.622 25.6135 164.622C26.2766 164.622 26.9435 164.397 27.4904 163.936C28.7217 162.898 28.8783 161.059 27.841 159.828C13.647 142.986 5.83008 121.561 5.83008 99.5Z" fill="black"/>
                    <path d="M173.186 32.6348C172.103 31.4431 170.26 31.3541 169.068 32.4362C167.876 33.5183 167.787 35.3617 168.869 36.5542C184.54 53.8135 193.171 76.1684 193.171 99.5C193.171 124.52 183.427 148.043 165.736 165.735C148.044 183.427 124.521 193.17 99.5008 193.17C76.1474 193.17 53.7778 184.526 36.5126 168.83C35.3213 167.747 33.4775 167.835 32.395 169.026C31.3118 170.217 31.3996 172.062 32.5909 173.144C50.932 189.818 74.6942 199 99.5008 199C126.078 199 151.065 188.65 169.858 169.857C188.651 151.064 199.001 126.077 199.001 99.5C199.001 74.7159 189.833 50.9696 173.186 32.6348Z" fill="black"/>
                    <path d="M99.4996 165.432C123.594 165.432 143.196 145.83 143.196 121.735V121.556C143.196 117.674 140.038 114.515 136.155 114.515H62.8439C58.9615 114.515 55.8027 117.674 55.8027 121.556V121.735C55.8027 145.83 75.405 165.432 99.4996 165.432ZM99.4996 159.602C82.6335 159.602 68.3098 148.517 63.4254 133.251C75.208 136.034 87.3225 137.447 99.4996 137.447C111.677 137.447 123.79 136.035 135.573 133.253C130.688 148.518 116.365 159.602 99.4996 159.602ZM61.6328 121.556C61.6328 120.888 62.1762 120.345 62.8439 120.345H136.155C136.823 120.345 137.366 120.888 137.366 121.556V121.735C137.366 123.485 137.244 125.206 137.014 126.893C124.799 130.025 112.187 131.617 99.4999 131.617C86.8137 131.617 74.1997 130.025 61.9861 126.892C61.7552 125.206 61.6336 123.484 61.6336 121.735V121.556H61.6328Z" fill="black"/>
                    <path d="M165.546 58.6312C158.944 52.03 148.202 52.0296 141.6 58.6316L138.185 62.046C138.036 62.1949 137.794 62.1949 137.644 62.046L134.23 58.6312C127.628 52.03 116.885 52.03 110.284 58.6312C103.682 65.2332 103.682 75.976 110.284 82.578L133.522 105.816C134.696 106.99 136.256 107.636 137.915 107.636C139.574 107.636 141.134 106.99 142.308 105.817L165.546 82.5776C172.148 75.976 172.148 65.2332 165.546 58.6312ZM161.424 78.4554L138.185 101.694C138.036 101.843 137.793 101.844 137.644 101.694L114.406 78.4554C110.077 74.1264 110.077 67.0828 114.406 62.7538C116.57 60.5893 119.413 59.5069 122.257 59.5069C125.099 59.5069 127.943 60.5893 130.107 62.7534L133.522 66.1683C133.522 66.1683 133.522 66.1687 133.522 66.1687C135.944 68.5901 139.885 68.5905 142.307 66.1683L145.722 62.7538C150.051 58.4248 157.095 58.4252 161.424 62.7534C165.753 67.0828 165.753 74.1264 161.424 78.4554Z" fill="black"/>
                    <path d="M61.0853 107.636C62.7449 107.636 64.3047 106.99 65.4777 105.817L88.7164 82.5776C95.3183 75.976 95.3183 65.2332 88.7164 58.6312C82.1144 52.03 71.3719 52.0296 64.7699 58.6316L61.355 62.046C61.2062 62.1953 60.9636 62.1945 60.8144 62.046L57.3999 58.6312C50.7979 52.03 40.0558 52.03 33.4534 58.6312C26.8515 65.2332 26.8515 75.976 33.4534 82.578L56.6917 105.816C57.8659 106.99 59.426 107.636 61.0853 107.636ZM37.5765 62.7538C39.741 60.5893 42.5837 59.5069 45.4273 59.5069C48.27 59.5069 51.1135 60.5893 53.278 62.7534L56.6929 66.1683C56.6929 66.1687 56.6929 66.1687 56.6933 66.1687C59.1155 68.5901 63.0562 68.5905 65.4785 66.1683L68.8933 62.7538C73.222 58.4252 80.2655 58.4248 84.5949 62.7534C88.9235 67.0828 88.9235 74.1264 84.5949 78.455L61.3554 101.694C61.2069 101.843 60.964 101.843 60.8156 101.694L37.5769 78.455C33.2474 74.1264 33.2474 67.0828 37.5765 62.7538Z" fill="black"/>
                    <path d="M50.5 217.5H150" stroke="black"/>
                    </svg>
