<svg width="199" height="218" viewBox="0 0 199 218" fill="none" xmlns="http://www.w3.org/2000/svg">
                    <path d="M192.197 99.5C192.197 152.843 152.842 195.696 99.499 195.696C96.2194 195.696 92.9779 195.921 89.7818 195.602C41.0027 190.729 2.91406 149.563 2.91406 99.5C2.91406 49.4916 40.9203 8.35996 89.6236 3.41372C92.8706 3.08413 96.165 3.30373 99.499 3.30373C152.842 3.30373 192.197 46.1575 192.197 99.5Z" fill="#FD8087"/>
                    <path d="M99.5 2.91504C96.22 2.91504 92.9789 3.08022 89.7832 3.39971C138.563 8.27288 176.651 49.4375 176.651 99.5C176.651 149.562 138.563 190.727 89.7832 195.6C92.9789 195.92 96.22 196.085 99.5 196.085C152.842 196.085 196.085 152.842 196.085 99.5C196.085 46.1575 152.842 2.91504 99.5 2.91504Z" fill="#EE6161"/>
                    <path d="M61.0811 93.6408C57.3245 93.6408 54.2793 90.5955 54.2793 86.839V74.4688C54.2793 70.7122 57.3245 67.667 61.0811 67.667C64.8376 67.667 67.8828 70.7122 67.8828 74.4688V86.839C67.8828 90.5955 64.8376 93.6408 61.0811 93.6408Z" fill="#685E68"/>
                    <path d="M137.919 93.6408C134.162 93.6408 131.117 90.5955 131.117 86.839V74.4688C131.117 70.7122 134.162 67.667 137.919 67.667C141.675 67.667 144.721 70.7122 144.721 74.4688V86.839C144.721 90.5955 141.675 93.6408 137.919 93.6408Z" fill="#685E68"/>
                    <path d="M136.634 146.903C135.888 146.903 135.141 146.618 134.572 146.049C115.234 126.711 83.7691 126.711 64.4311 146.049C63.2927 147.187 61.4469 147.187 60.3089 146.049C59.1705 144.91 59.1705 143.065 60.3089 141.927C81.9202 120.315 117.084 120.315 138.695 141.927C139.833 143.065 139.833 144.911 138.695 146.049C138.126 146.618 137.38 146.903 136.634 146.903Z" fill="black"/>
                    <path d="M25.6135 164.622C24.7837 164.622 23.9597 164.269 23.3829 163.585C8.30436 145.693 0 122.934 0 99.5C0 72.9226 10.3496 47.9357 29.1426 29.1426C47.9357 10.3496 72.9226 0 99.5 0C123.015 0 145.835 8.35567 163.756 23.5279C164.985 24.5679 165.138 26.4075 164.098 27.6361C163.058 28.8647 161.218 29.0175 159.989 27.9774C143.12 13.6952 121.638 5.83008 99.5 5.83008C74.4796 5.83008 50.9572 15.5733 33.2653 33.2653C15.5733 50.9572 5.83008 74.4796 5.83008 99.5C5.83008 121.561 13.647 142.986 27.841 159.828C28.8783 161.059 28.7217 162.898 27.4904 163.936C26.9435 164.397 26.2766 164.622 25.6135 164.622Z" fill="black"/>
                    <path d="M99.4988 199C74.6922 199 50.93 189.818 32.589 173.144C31.3977 172.061 31.3098 170.218 32.3931 169.026C33.4755 167.835 35.3194 167.747 36.5107 168.831C53.7759 184.526 76.1455 193.17 99.4988 193.17C124.519 193.17 148.042 183.427 165.734 165.735C183.426 148.043 193.169 124.52 193.169 99.5C193.169 76.168 184.538 53.8132 168.867 36.5538C167.785 35.3622 167.874 33.5183 169.066 32.4362C170.258 31.3538 172.102 31.4428 173.184 32.6349C189.831 50.9693 198.999 74.7156 198.999 99.5C198.999 126.077 188.649 151.064 169.856 169.857C151.063 188.65 126.076 199 99.4988 199Z" fill="black"/>
                    <path d="M69.8301 60.9178C69.4434 60.9178 69.0508 60.8404 68.673 60.6768L50.1773 52.667C48.7 52.0273 48.021 50.3109 48.6607 48.8336C49.3005 47.3562 51.0161 46.6772 52.4942 47.317L70.9899 55.3267C72.4672 55.9665 73.1463 57.6828 72.5065 59.1602C72.0304 60.2605 70.9573 60.9178 69.8301 60.9178Z" fill="black"/>
                    <path d="M129.171 60.9177C128.044 60.9177 126.971 60.2605 126.495 59.1605C125.855 57.6832 126.534 55.9668 128.011 55.3271L146.507 47.3173C147.984 46.6776 149.7 47.3566 150.34 48.8339C150.98 50.3113 150.301 52.0276 148.824 52.6674L130.328 60.6771C129.951 60.8404 129.557 60.9177 129.171 60.9177Z" fill="black"/>
                    <path d="M61.082 96.5558C55.7242 96.5558 51.3652 92.1968 51.3652 86.839V74.4688C51.3652 69.1109 55.7242 64.752 61.082 64.752C66.4399 64.752 70.7988 69.1109 70.7988 74.4688V86.839C70.7988 92.1968 66.4399 96.5558 61.082 96.5558ZM61.082 70.582C58.9389 70.582 57.1953 72.3256 57.1953 74.4688V86.839C57.1953 88.9821 58.9389 90.7257 61.082 90.7257C63.2252 90.7257 64.9688 88.9821 64.9688 86.839V74.4688C64.9688 72.3256 63.2252 70.582 61.082 70.582Z" fill="black"/>
                    <path d="M137.928 96.5558C132.57 96.5558 128.211 92.1968 128.211 86.839V74.4688C128.211 69.1109 132.57 64.752 137.928 64.752C143.286 64.752 147.645 69.1109 147.645 74.4688V86.839C147.645 92.1968 143.286 96.5558 137.928 96.5558ZM137.928 70.582C135.785 70.582 134.041 72.3256 134.041 74.4688V86.839C134.041 88.9821 135.785 90.7257 137.928 90.7257C140.071 90.7257 141.814 88.9821 141.814 86.839V74.4688C141.814 72.3256 140.071 70.582 137.928 70.582Z" fill="black"/>
                    <path d="M49.5 217.5H149" stroke="black"/>
                    </svg>
