    <svg width="199" height="218" viewBox="0 0 199 218" fill="none" xmlns="http://www.w3.org/2000/svg">
                    <path d="M192.197 99.5C192.197 152.843 152.842 195.696 99.499 195.696C96.2194 195.696 92.9779 195.921 89.7818 195.602C41.0027 190.729 2.91406 149.563 2.91406 99.5C2.91406 49.4916 40.9203 8.35996 89.6236 3.41372C92.8706 3.08413 96.165 3.30373 99.499 3.30373C152.842 3.30373 192.197 46.1575 192.197 99.5Z" fill="#FFF0AF"/>
                    <path d="M99.498 2.91504C96.218 2.91504 92.9769 3.08022 89.7812 3.39971C138.561 8.27288 176.649 49.4375 176.649 99.5C176.649 149.562 138.561 190.727 89.7812 195.6C92.9769 195.92 96.218 196.085 99.498 196.085C113.457 196.085 126.725 193.124 138.706 187.795C140.518 186.989 142.298 185.367 144.049 184.455C145.916 183.482 147.749 183.214 149.542 182.125C177.443 165.191 196.083 134.522 196.083 99.5C196.083 46.1575 152.841 2.91504 99.498 2.91504Z" fill="#FFE07D"/>
                    <path d="M148.638 82.428C145.31 85.659 140.31 86.7228 136.675 87.0435C137.464 93.3485 139.471 95.1613 139.471 104.374C139.471 115.837 136.361 115.837 136.361 127.3C136.361 138.764 139.471 138.764 139.471 150.228C139.471 161.692 136.361 161.692 136.361 173.156C136.361 174.972 136.439 176.501 136.571 177.833C137 182.192 139.203 181.919 139.908 185.262C143.652 183.597 144.557 184.234 148.031 182.125C147.517 179.905 148.241 177.269 148.241 173.156C148.241 170.703 148.772 168.775 148.996 167.146C149.818 161.167 151.739 159.238 151.739 150.228C151.739 138.764 148.629 138.764 148.629 127.301C148.629 115.837 151.739 115.837 151.739 104.374C151.739 93.2478 148.81 92.919 148.638 82.428Z" fill="#8AC9FE"/>
                    <path d="M149.542 182.125C149.029 179.905 148.628 177.269 148.628 173.156C148.628 170.702 148.771 168.775 148.995 167.146C145.167 171.047 141.011 174.624 136.57 177.833C137 182.19 137.999 184.448 138.705 187.79C142.448 186.125 146.068 184.234 149.542 182.125Z" fill="#60B7FF"/>
                    <path d="M112.205 132.01C112.205 143.069 108.663 151.645 99.499 151.645C98.1601 151.645 96.858 151.843 95.6108 151.481C88.3228 149.369 82.9062 141.453 82.9062 132.01C82.9062 129.601 83.2584 127.292 83.9044 125.154C86.2243 117.471 92.3308 112.375 99.499 112.375C108.663 112.374 112.205 120.951 112.205 132.01Z" fill="#FD8087"/>
                    <path d="M99.5 112.763C98.161 112.763 96.8605 112.96 95.6133 113.321C101.21 114.943 105.704 119.207 107.488 125.735C108.027 127.709 108.319 129.818 108.319 132.01C108.319 141.452 102.901 149.364 95.6133 151.476C96.8605 151.837 98.161 152.034 99.5 152.034C108.664 152.034 116.093 143.069 116.093 132.01C116.093 129.602 115.74 127.292 115.095 125.154C112.775 117.471 106.668 112.763 99.5 112.763Z" fill="#EE6161"/>
                    <path d="M83.9043 125.153C89.0328 125.671 94.2333 125.945 99.4982 125.945C102.177 125.945 104.839 125.874 107.483 125.736C110.036 125.604 109.448 125.205 111.968 124.951C109.648 117.268 106.666 112.375 99.4982 112.375C98.1592 112.375 96.8572 112.178 95.6099 112.539C90.181 114.112 85.7905 118.907 83.9043 125.153Z" fill="#F3F0F3"/>
                    <path d="M99.5 111.986C98.1739 111.986 96.8842 112.175 95.6479 112.529C95.6362 112.533 95.6246 112.54 95.6133 112.543C101.209 114.165 105.699 119.208 107.484 125.735C110.038 125.602 112.575 125.407 115.094 125.153C112.774 117.471 106.668 111.986 99.5 111.986Z" fill="#E2DEE2"/>
                    <path d="M59.5294 104.374C59.5294 95.3362 61.4615 93.4208 62.2792 87.3979C55.8626 88.4691 52.0933 84.9878 50.3571 82.6833C50.1414 92.9221 47.2617 93.34 47.2617 104.374C47.2617 115.837 50.3711 115.837 50.3711 127.301C50.3711 138.764 47.2617 138.764 47.2617 150.228C47.2617 161.692 50.3711 161.692 50.3711 173.156C50.3711 177.27 49.97 179.905 49.4569 182.126C52.9313 184.234 56.5514 186.126 60.2947 187.791C61.2154 183.426 62.6391 180.915 62.6391 173.156C62.6391 161.692 59.5298 161.692 59.5298 150.228C59.5298 138.764 62.6391 138.764 62.6391 127.301C62.6387 115.837 59.5294 115.837 59.5294 104.374Z" fill="#8AC9FE"/>
                    <path d="M5.83008 99.5C5.83008 74.4796 15.5733 50.9572 33.2653 33.2653C50.9572 15.5733 74.4796 5.83008 99.5 5.83008C121.638 5.83008 143.12 13.6952 159.989 27.9774C161.218 29.0175 163.057 28.8647 164.097 27.6361C165.138 26.4071 164.985 24.5679 163.756 23.5279C145.836 8.35567 123.015 0 99.5 0C72.9226 0 47.9357 10.3496 29.1426 29.1426C10.3499 47.9357 0 72.9226 0 99.5C0 122.934 8.30436 145.694 23.3829 163.585C23.9597 164.269 24.7837 164.622 25.6135 164.622C26.2766 164.622 26.9439 164.397 27.4904 163.936C28.7217 162.898 28.8783 161.059 27.841 159.828C13.647 142.986 5.83008 121.561 5.83008 99.5Z" fill="black"/>
                    <path d="M173.186 32.6348C172.103 31.4428 170.26 31.3541 169.068 32.4362C167.876 33.5187 167.787 35.3621 168.869 36.5538C184.54 53.8132 193.171 76.168 193.171 99.5C193.171 124.52 183.428 148.043 165.736 165.735C161.393 170.077 156.698 173.937 151.717 177.295C151.612 176.138 151.545 174.783 151.545 173.156C151.545 167.813 152.251 165.21 152.998 162.455C153.813 159.453 154.655 156.348 154.655 150.228C154.655 144.107 153.813 141.003 152.998 138.001C152.251 135.246 151.545 132.644 151.545 127.301C151.545 121.957 152.251 119.355 152.998 116.6C153.813 113.598 154.655 110.494 154.655 104.374C154.655 98.2539 153.813 95.1496 152.998 92.1475C152.251 89.393 151.545 86.7908 151.545 81.4477C151.545 78.5374 147.558 77.4685 146.104 79.9906C144.395 82.9507 141.335 84.718 137.916 84.718C134.498 84.718 131.437 82.9507 129.728 79.9906C128.923 78.596 127.139 78.1188 125.746 78.9237C124.352 79.7286 123.874 81.5115 124.679 82.9056C126.808 86.5934 130.238 89.1291 134.226 90.1015C134.495 91.4179 134.802 92.5606 135.104 93.6738C135.852 96.4283 136.557 99.0305 136.557 104.374C136.557 109.717 135.852 112.319 135.104 115.074C134.29 118.076 133.448 121.18 133.448 127.301C133.448 133.421 134.29 136.525 135.104 139.527C135.852 142.282 136.557 144.884 136.557 150.228C136.557 155.572 135.852 158.174 135.104 160.929C134.29 163.932 133.448 167.036 133.448 173.157C133.448 179.279 134.29 182.385 135.104 185.388C135.171 185.633 135.236 185.873 135.3 186.114C124.099 190.743 111.987 193.17 99.501 193.17C87.0872 193.17 74.9513 190.727 63.7121 186.081C63.7735 185.852 63.8357 185.622 63.899 185.388C64.7133 182.384 65.5555 179.278 65.5555 173.156C65.5555 167.036 64.7137 163.931 63.899 160.929C63.152 158.174 62.4462 155.571 62.4462 150.228C62.4462 144.884 63.152 142.282 63.899 139.527C64.7137 136.525 65.5555 133.421 65.5555 127.3C65.5555 121.18 64.7137 118.076 63.899 115.073C63.1516 112.318 62.4462 109.716 62.4462 104.373C62.4462 99.0301 63.152 96.4279 63.899 93.6734C64.201 92.5603 64.5088 91.4176 64.7774 90.1007C68.7656 89.1279 72.1944 86.5922 74.3232 82.9053C75.1281 81.5111 74.6505 79.7283 73.2563 78.9233C71.861 78.118 70.0785 78.596 69.2744 79.9902C67.565 82.9503 64.5042 84.7176 61.0862 84.7176C57.6678 84.7176 54.607 82.9503 52.8981 79.9902C51.4429 77.4697 47.4586 78.5366 47.4586 81.4473C47.4586 86.7904 46.7532 89.3926 46.0057 92.1471C45.1911 95.1492 44.3492 98.2531 44.3492 104.373C44.3492 110.493 45.1911 113.598 46.0057 116.6C46.7528 119.355 47.4586 121.957 47.4586 127.3C47.4586 132.644 46.7532 135.246 46.0057 138.001C45.1911 141.003 44.3492 144.107 44.3492 150.228C44.3492 156.348 45.1911 159.453 46.0057 162.455C46.7528 165.21 47.4586 167.812 47.4586 173.156C47.4586 174.772 47.3929 176.12 47.2884 177.272C43.5202 174.739 39.916 171.924 36.5128 168.83C35.3223 167.747 33.4781 167.834 32.3948 169.026C31.312 170.217 31.3994 172.06 32.5911 173.144C50.9318 189.818 74.6944 199 99.501 199C126.078 199 151.065 188.65 169.858 169.857C188.651 151.064 199.001 126.077 199.001 99.5C199.001 74.7155 189.833 50.9692 173.186 32.6348ZM51.6318 160.929C50.8847 158.174 50.1789 155.572 50.1789 150.228C50.1789 144.884 50.8847 142.282 51.6318 139.527C52.4464 136.525 53.2883 133.421 53.2883 127.301C53.2883 121.18 52.4464 118.076 51.6318 115.074C50.8843 112.319 50.1789 109.717 50.1789 104.374C50.1789 99.0305 50.8843 96.4283 51.6318 93.6738C52.0783 92.0282 52.5319 90.3483 52.8518 88.1609C54.6183 89.2911 56.6145 90.0455 58.7413 90.3662C58.5921 90.9671 58.4343 91.5509 58.2726 92.1471C57.458 95.1492 56.6161 98.2531 56.6161 104.373C56.6161 110.493 57.458 113.598 58.2726 116.6C59.0196 119.355 59.7255 121.957 59.7255 127.3C59.7255 132.644 59.02 135.246 58.2726 138.001C57.458 141.003 56.6161 144.107 56.6161 150.228C56.6161 156.348 57.458 159.453 58.2726 162.455C59.0196 165.21 59.7255 167.812 59.7255 173.156C59.7255 178.363 59.0554 180.969 58.3297 183.649C56.4303 182.719 54.5608 181.723 52.7247 180.664C53.0341 178.837 53.2879 176.44 53.2879 173.156C53.2883 167.036 52.4464 163.931 51.6318 160.929ZM139.278 173.156C139.278 167.813 139.984 165.21 140.731 162.455C141.546 159.453 142.387 156.348 142.387 150.228C142.387 144.107 141.546 141.003 140.731 138.001C139.983 135.246 139.278 132.644 139.278 127.301C139.278 121.957 139.984 119.355 140.731 116.6C141.546 113.598 142.387 110.494 142.387 104.374C142.387 98.2539 141.546 95.1496 140.731 92.1475C140.569 91.5513 140.411 90.9671 140.262 90.3662C142.389 90.0452 144.385 89.2907 146.152 88.1601C146.472 90.3475 146.926 92.0278 147.372 93.6738C148.12 96.4283 148.825 99.0305 148.825 104.374C148.825 109.717 148.12 112.319 147.372 115.074C146.557 118.076 145.716 121.18 145.716 127.301C145.716 133.421 146.557 136.525 147.372 139.527C148.119 142.282 148.825 144.884 148.825 150.228C148.825 155.572 148.119 158.174 147.372 160.929C146.557 163.932 145.716 167.036 145.716 173.157C145.716 176.456 145.972 178.861 146.283 180.69C144.449 181.752 142.58 182.748 140.682 183.679C139.953 180.989 139.278 178.383 139.278 173.156Z" fill="black"/>
                    <path d="M49.2295 57.9985C45.6596 61.568 43.6202 66.042 43.7737 69.9664C43.8347 71.5363 45.1267 72.7676 46.6845 72.7676C46.723 72.7676 46.7614 72.7668 46.8003 72.7653C48.409 72.7023 49.6621 71.3474 49.5991 69.7387C49.5093 67.444 50.9474 64.5246 53.3518 62.1203C55.7565 59.716 58.6793 58.2814 60.9701 58.3677C62.5971 58.4299 63.9341 57.1776 63.9967 55.5685C64.0597 53.9598 62.8066 52.6049 61.1979 52.5419C57.275 52.386 52.7987 54.4289 49.2295 57.9985Z" fill="black"/>
                    <path d="M137.801 52.5426C136.192 52.6056 134.939 53.9605 135.002 55.5692C135.065 57.1779 136.408 58.4322 138.029 58.3684C140.304 58.2814 143.243 59.7163 145.647 62.1211C148.052 64.5254 149.49 67.4443 149.4 69.7394C149.337 71.3481 150.59 72.703 152.199 72.766C152.238 72.7676 152.276 72.7683 152.315 72.7683C153.872 72.7683 155.164 71.537 155.225 69.9672C155.379 66.0428 153.339 61.5688 149.769 57.9992C146.2 54.4289 141.727 52.3879 137.801 52.5426Z" fill="black"/>
                    <path d="M79.9922 132.01C79.9922 144.659 88.7435 154.949 99.5 154.949C110.257 154.949 119.008 144.659 119.008 132.01C119.008 119.362 110.257 109.071 99.5 109.071C88.7435 109.071 79.9922 119.361 79.9922 132.01ZM99.5 149.119C91.9582 149.119 85.8223 141.444 85.8223 132.01C85.8223 130.732 85.9385 129.488 86.1519 128.289C90.6138 128.667 95.096 128.861 99.5 128.861C103.904 128.861 108.386 128.667 112.848 128.289C113.062 129.488 113.178 130.732 113.178 132.01C113.178 141.444 107.042 149.119 99.5 149.119ZM110.91 122.59C107.09 122.879 103.265 123.031 99.5 123.031C95.735 123.031 91.9093 122.879 88.0898 122.591C90.5404 117.962 94.7392 114.901 99.5 114.901C104.261 114.901 108.46 117.961 110.91 122.59Z" fill="black"/>
                    <path d="M49.5 217.5H149" stroke="black"/>
                    </svg>
